<svg width="16" height="10" viewBox="0 0 16 10" fill="none" xmlns="http://www.w3.org/2000/svg">
<path d="M15.9421 5.63188C15.822 4.36906 15.6243 4.12313 15.5497 4.03062C15.378 3.81687 15.1033 3.67719 14.8126 3.53062C14.7961 3.52248 14.7819 3.51086 14.7711 3.49669C14.7603 3.48252 14.7531 3.46618 14.7502 3.44897C14.7472 3.43176 14.7486 3.41414 14.7541 3.39751C14.7597 3.38087 14.7693 3.36568 14.7822 3.35313C14.8361 3.30195 14.8774 3.24045 14.9035 3.17285C14.9296 3.10526 14.9397 3.03318 14.9332 2.96156C14.9207 2.83457 14.8577 2.71662 14.7567 2.63113C14.6558 2.54563 14.5242 2.49883 14.3882 2.5H13.8681C13.8458 2.50012 13.8235 2.50148 13.8014 2.50406C13.7862 2.49789 13.7705 2.49297 13.7544 2.48938C13.4464 1.87906 13.0246 1.04344 12.1505 0.635625C10.854 0.0312499 8.46563 0 7.9989 0C7.53216 0 5.14381 0.0312499 3.84895 0.634687C2.97482 1.0425 2.55309 1.87813 2.24505 2.48844L2.24238 2.49344C2.22702 2.49546 2.21193 2.49903 2.19738 2.50406C2.17525 2.50148 2.15299 2.50012 2.1307 2.5H1.60962C1.47357 2.49883 1.34201 2.54563 1.24104 2.63113C1.14008 2.71662 1.07708 2.83457 1.06454 2.96156C1.05862 3.03301 1.06923 3.10482 1.09564 3.17208C1.12205 3.23933 1.16364 3.30045 1.21756 3.35125C1.23047 3.3638 1.24008 3.379 1.24564 3.39563C1.25121 3.41226 1.25257 3.42988 1.24963 3.44709C1.24669 3.46431 1.23952 3.48064 1.22869 3.49481C1.21786 3.50898 1.20367 3.5206 1.18723 3.52875C0.896517 3.67625 0.620476 3.81594 0.450118 4.02875C0.37544 4.1225 0.178078 4.36719 0.0577267 5.63C-0.00894978 6.34063 -0.0189512 7.07625 0.0333898 7.55C0.143073 8.53438 0.34877 9.12937 0.357438 9.15406C0.389002 9.2439 0.447104 9.32351 0.524999 9.38363C0.602893 9.44376 0.697385 9.48194 0.797502 9.49375V9.5C0.797502 9.63261 0.853701 9.75979 0.953735 9.85355C1.05377 9.94732 1.18944 10 1.33091 10H3.19786C3.33932 10 3.475 9.94732 3.57503 9.85355C3.67507 9.75979 3.73127 9.63261 3.73127 9.5C4.01831 9.5 4.21801 9.45188 4.4297 9.40063C4.73534 9.32343 5.04775 9.27208 5.36317 9.24719C6.38032 9.15625 7.39181 9.125 7.9989 9.125C8.59365 9.125 9.6498 9.15625 10.6686 9.24719C10.9853 9.27213 11.2989 9.32369 11.6058 9.40125C11.8085 9.45 12.0008 9.495 12.2672 9.49969C12.2672 9.6323 12.3234 9.75947 12.4234 9.85324C12.5235 9.94701 12.6591 9.99969 12.8006 9.99969H14.6675C14.809 9.99969 14.9447 9.94701 15.0447 9.85324C15.1448 9.75947 15.201 9.6323 15.201 9.49969V9.49594C15.3013 9.48435 15.3961 9.44627 15.4742 9.38613C15.5524 9.32599 15.6107 9.24626 15.6424 9.15625C15.651 9.13156 15.8567 8.53656 15.9664 7.55219C16.0187 7.07813 16.0094 6.34375 15.9421 5.63188ZM3.20919 2.91594C3.4759 2.38469 3.78094 1.78344 4.32402 1.53C5.1088 1.16375 6.73538 0.99875 7.9989 0.99875C9.26241 0.99875 10.889 1.1625 11.6738 1.53C12.2168 1.78344 12.5206 2.385 12.7886 2.91594L12.8219 2.98375C12.8414 3.02236 12.8501 3.065 12.847 3.10761C12.8439 3.15023 12.8292 3.19139 12.8043 3.22718C12.7795 3.26296 12.7452 3.29218 12.7049 3.31204C12.6645 3.3319 12.6195 3.34174 12.5739 3.34062C11.4661 3.3125 9.13239 3.2225 7.9989 3.2225C6.8654 3.2225 4.53172 3.31469 3.42222 3.34281C3.37667 3.34393 3.33158 3.33409 3.29124 3.31423C3.2509 3.29437 3.21666 3.26515 3.19178 3.22936C3.16691 3.19358 3.15223 3.15241 3.14915 3.1098C3.14607 3.06719 3.15469 3.02454 3.17419 2.98594C3.18585 2.96281 3.19819 2.93937 3.20919 2.91594ZM3.60692 5.40438C3.03343 5.46907 2.45628 5.50101 1.87866 5.5C1.52528 5.5 1.16089 5.40625 1.09321 5.11125C1.04687 4.91281 1.05187 4.80125 1.07688 4.68906C1.09788 4.59375 1.13122 4.52437 1.29791 4.5C1.73131 4.4375 1.97368 4.51594 2.68311 4.71187C3.15352 4.84156 3.4929 5.01437 3.68626 5.15125C3.78327 5.21875 3.7316 5.395 3.60692 5.40438ZM10.9873 7.96688C10.5486 8.01375 9.67114 7.99656 8.0089 7.99656C6.34665 7.99656 5.46952 8.01375 5.03079 7.96688C4.57806 7.91969 4.00097 7.51844 4.39503 7.16094C4.6574 6.92531 5.26949 6.74906 6.08461 6.65C6.89973 6.55094 7.24478 6.5 8.00556 6.5C8.76634 6.5 9.07639 6.53125 9.92651 6.65031C10.7766 6.76937 11.4191 6.94781 11.6161 7.16125C11.9755 7.54375 11.4397 7.91719 10.9873 7.96875V7.96688ZM14.9046 5.11094C14.8379 5.40719 14.4712 5.49969 14.1191 5.49969C13.5305 5.49982 12.9423 5.46789 12.3575 5.40406C12.2555 5.395 12.2082 5.22719 12.3115 5.15094C12.5019 5.01062 12.8449 4.84125 13.3147 4.71156C14.0241 4.51562 14.4332 4.43719 14.7846 4.5025C14.8702 4.51844 14.9156 4.60469 14.9209 4.65875C14.9444 4.80928 14.9389 4.96255 14.9046 5.11125V5.11094Z" fill="white"/>
</svg>
