<svg width="12" height="16" viewBox="0 0 12 16" fill="none" xmlns="http://www.w3.org/2000/svg">
<path d="M6 7.42857C8.05712 7.42857 9.72474 5.76563 9.72474 3.71429C9.72474 1.66294 8.05712 0 6 0C3.94288 0 2.27526 1.66294 2.27526 3.71429C2.27526 5.76563 3.94288 7.42857 6 7.42857Z" fill="white"/>
<path d="M0.000308036 13.4114C-0.00542233 13.5829 0.0690724 13.7543 0.200871 13.8686C1.82829 15.24 3.8855 16 6 16C8.1145 16 10.1717 15.24 11.7991 13.8686C11.9309 13.7543 12.0054 13.5829 11.9997 13.4114C11.9137 11.0171 10.4124 8.90857 8.17754 8.04C8.04698 7.98956 7.90261 7.98754 7.77068 8.03429C6.64753 8.44 5.35247 8.44 4.22932 8.03429C4.09739 7.98754 3.95302 7.98956 3.82246 8.04C1.58762 8.90857 0.0862635 11.0171 0.000308036 13.4114Z" fill="white"/>
</svg>
