<svg width="40" height="40" viewBox="0 0 40 40" fill="none" xmlns="http://www.w3.org/2000/svg">
<path d="M30.9153 13.6048C29.817 11.7386 28.2614 10.183 26.3952 9.08467C26.3552 9.05758 26.3138 9.03217 26.2715 9.00942C22.3893 6.77475 17.6113 6.77475 13.7295 9.00942C13.6866 9.03216 13.645 9.05728 13.6048 9.08467C11.7386 10.183 10.183 11.7386 9.08467 13.6048C9.05725 13.6445 9.03217 13.6858 9.00942 13.7285C6.77475 17.611 6.77475 22.389 9.00942 26.2715C9.03842 26.3284 9.07192 26.3832 9.10942 26.4353C10.2062 28.2838 11.7526 29.8249 13.6048 30.9153C13.652 30.9483 13.7015 30.9785 13.7526 31.0052C17.6231 33.2204 22.3769 33.2204 26.2474 31.0052C26.2985 30.9786 26.348 30.9483 26.3952 30.9153C28.2474 29.8249 29.7938 28.2838 30.8906 26.4353C30.928 26.3833 30.9615 26.3286 30.9906 26.2715C33.2252 22.389 33.2252 17.611 30.9906 13.7285C30.9676 13.6861 30.9425 13.6448 30.9153 13.6048ZM26.2302 29.4573L25.5775 28.3239C25.5194 28.2218 25.4353 28.1368 25.3338 28.0776C25.2322 28.0184 25.1169 27.9872 24.9993 27.987C24.8818 27.9867 24.7663 28.0175 24.6646 28.0762C24.5628 28.135 24.4783 28.2196 24.4198 28.3214C24.3612 28.4233 24.3306 28.5389 24.3311 28.6564C24.3316 28.7739 24.3631 28.8892 24.4225 28.9906L25.0726 30.1173C23.7004 30.8088 22.2007 31.2111 20.6667 31.2994V30C20.6667 29.8232 20.5964 29.6536 20.4714 29.5286C20.3464 29.4036 20.1768 29.3333 20 29.3333C19.8232 29.3333 19.6536 29.4036 19.5286 29.5286C19.4036 29.6536 19.3333 29.8232 19.3333 30V31.2995C17.7995 31.2119 16.2999 30.8105 14.9274 30.1201L15.5774 28.9934C15.6613 28.8405 15.682 28.6609 15.635 28.493C15.588 28.325 15.4772 28.1822 15.3261 28.095C15.1751 28.0078 14.996 27.9833 14.8271 28.0266C14.6582 28.0699 14.5129 28.1777 14.4225 28.3267L13.7698 29.46C12.4881 28.6121 11.3905 27.5145 10.5427 26.2327L11.6761 25.5801C11.7783 25.522 11.8633 25.438 11.9224 25.3364C11.9816 25.2349 12.0129 25.1195 12.013 25.0019C12.0133 24.8844 11.9826 24.7689 11.9238 24.6671C11.865 24.5653 11.7804 24.4809 11.6784 24.4225C11.5766 24.3638 11.461 24.3332 11.3435 24.3337C11.226 24.3342 11.1107 24.3659 11.0094 24.4254L9.88275 25.0752C9.19077 23.7022 8.78839 22.2016 8.70058 20.6667H10C10.1768 20.6667 10.3464 20.5964 10.4714 20.4714C10.5964 20.3464 10.6667 20.1768 10.6667 20C10.6667 19.8232 10.5964 19.6536 10.4714 19.5286C10.3464 19.4036 10.1768 19.3333 10 19.3333H8.7005C8.78806 17.7995 9.18948 16.2999 9.87992 14.9274L11.0066 15.5774C11.108 15.6368 11.2233 15.6683 11.3408 15.6689C11.4583 15.6694 11.5738 15.6389 11.6757 15.5804C11.7777 15.5219 11.8624 15.4375 11.9212 15.3356C11.98 15.2338 12.0108 15.1182 12.0104 15.0007C12.0102 14.8831 11.9788 14.7677 11.9196 14.6662C11.8604 14.5646 11.7754 14.4806 11.6732 14.4225L10.54 13.7698C11.3879 12.4881 12.4855 11.3905 13.7673 10.5427L14.4199 11.6761C14.478 11.7783 14.5621 11.8633 14.6636 11.9224C14.7651 11.9816 14.8806 12.0129 14.9981 12.013C15.1156 12.0133 15.2311 11.9826 15.3329 11.9238C15.4347 11.865 15.519 11.7804 15.5775 11.6784C15.6362 11.5766 15.6668 11.461 15.6663 11.3435C15.6658 11.226 15.6341 11.1107 15.5746 11.0094L14.9248 9.88275C16.2978 9.19077 17.7984 8.78839 19.3333 8.70058V10C19.3333 10.1768 19.4036 10.3464 19.5286 10.4714C19.6536 10.5964 19.8232 10.6667 20 10.6667C20.1768 10.6667 20.3464 10.5964 20.4714 10.4714C20.5964 10.3464 20.6667 10.1768 20.6667 10V8.7005C22.2005 8.78806 23.7001 9.18948 25.0726 9.87992L24.4226 11.0066C24.3632 11.108 24.3317 11.2233 24.3311 11.3408C24.3306 11.4583 24.3611 11.5738 24.4196 11.6757C24.4781 11.7777 24.5625 11.8624 24.6644 11.9212C24.7662 11.98 24.8818 12.0108 24.9993 12.0104C25.1169 12.0102 25.2323 11.9788 25.3338 11.9196C25.4354 11.8604 25.5194 11.7754 25.5775 11.6732L26.2302 10.54C27.5119 11.3879 28.6095 12.4855 29.4573 13.7673L28.3239 14.4199C28.2217 14.478 28.1367 14.5621 28.0775 14.6636C28.0184 14.7651 27.9871 14.8806 27.987 14.9981C27.9867 15.1156 28.0174 15.2311 28.0762 15.3329C28.135 15.4347 28.2196 15.519 28.3216 15.5775C28.4234 15.6362 28.539 15.6668 28.6565 15.6663C28.774 15.6658 28.8893 15.6341 28.9906 15.5746L30.1173 14.9248C30.8092 16.2978 31.2116 17.7984 31.2994 19.3333H30C29.8232 19.3333 29.6536 19.4036 29.5286 19.5286C29.4036 19.6536 29.3333 19.8232 29.3333 20C29.3333 20.1768 29.4036 20.3464 29.5286 20.4714C29.6536 20.5964 29.8232 20.6667 30 20.6667H31.2995C31.2119 22.2005 30.8105 23.7001 30.1201 25.0726L28.9934 24.4226C28.8405 24.3387 28.6609 24.318 28.493 24.365C28.325 24.412 28.1822 24.5228 28.095 24.6739C28.0078 24.8249 27.9833 25.004 28.0266 25.1729C28.0699 25.3418 28.1777 25.4871 28.3267 25.5775L29.46 26.2302C28.6113 27.5121 27.5128 28.6097 26.2302 29.4573Z" fill="#1F1F1F"/>
<path d="M20 12C19.8232 12 19.6536 12.0702 19.5286 12.1953C19.4036 12.3203 19.3333 12.4899 19.3333 12.6667V19.3333H14C13.8232 19.3333 13.6536 19.4036 13.5286 19.5286C13.4036 19.6536 13.3333 19.8232 13.3333 20C13.3333 20.1768 13.4036 20.3464 13.5286 20.4714C13.6536 20.5964 13.8232 20.6667 14 20.6667H20C20.1768 20.6667 20.3464 20.5964 20.4714 20.4714C20.5964 20.3464 20.6667 20.1768 20.6667 20V12.6667C20.6667 12.4899 20.5964 12.3203 20.4714 12.1953C20.3464 12.0702 20.1768 12 20 12Z" fill="#1F1F1F"/>
<path d="M39.3333 15.3333H34.6055C34.3461 14.5202 34.0188 13.7304 33.6273 12.972L36.9707 9.62858C37.2308 9.3685 37.2308 8.94625 36.9707 8.68583L31.3142 3.02933C31.0538 2.76917 30.6315 2.76917 30.3714 3.02933L27.028 6.37267C26.2696 5.98114 25.4798 5.65397 24.6667 5.39458V0.666667C24.6667 0.489856 24.5964 0.320286 24.4714 0.195262C24.3464 0.0702379 24.1768 0 24 0H16C15.8232 0 15.6536 0.0702379 15.5286 0.195262C15.4036 0.320286 15.3333 0.489856 15.3333 0.666667V5.3945C14.5202 5.65394 13.7304 5.98117 12.972 6.37275L9.62858 3.02933C9.36425 2.77933 8.9505 2.77933 8.68583 3.02933L3.02933 8.68583C2.76917 8.94625 2.76917 9.3685 3.02933 9.62858L6.37267 12.972C5.98114 13.7304 5.65397 14.5202 5.39458 15.3333H0.666667C0.489856 15.3333 0.320286 15.4036 0.195262 15.5286C0.0702379 15.6536 0 15.8232 0 16V24C0 24.1768 0.0702379 24.3464 0.195262 24.4714C0.320286 24.5964 0.489856 24.6667 0.666667 24.6667H5.3945C5.65394 25.4798 5.98117 26.2696 6.37275 27.028L3.02933 30.3714C2.76917 30.6315 2.76917 31.0538 3.02933 31.3142L8.68583 36.9707C8.94625 37.2308 9.3685 37.2308 9.62858 36.9707L12.972 33.6273C13.7304 34.0189 14.5202 34.346 15.3333 34.6054V39.3333C15.3333 39.5101 15.4036 39.6797 15.5286 39.8047C15.6536 39.9298 15.8232 40 16 40H24C24.1768 40 24.3464 39.9298 24.4714 39.8047C24.5964 39.6797 24.6667 39.5101 24.6667 39.3333V34.6055C25.4798 34.3461 26.2696 34.0188 27.028 33.6273L30.3714 36.9707C30.6315 37.2308 31.0538 37.2308 31.3142 36.9707L36.9707 31.3142C37.2308 31.0538 37.2308 30.6315 36.9707 30.3714L33.6273 27.028C34.0189 26.2696 34.346 25.4798 34.6054 24.6667H39.3333C39.5101 24.6667 39.6797 24.5964 39.8047 24.4714C39.9298 24.3464 40 24.1768 40 24V16C40 15.8232 39.9298 15.6536 39.8047 15.5286C39.6797 15.4036 39.5101 15.3333 39.3333 15.3333ZM38.6667 23.3333H34.11C33.9648 23.3334 33.8237 23.3808 33.7079 23.4684C33.5922 23.556 33.5082 23.679 33.4688 23.8187C33.1723 24.8653 32.7545 25.8736 32.2239 26.8233C32.1522 26.9503 32.1242 27.0973 32.144 27.2418C32.1639 27.3863 32.2306 27.5204 32.3339 27.6233L35.556 30.846L30.8428 35.5592L27.6201 32.3333C27.5171 32.23 27.3831 32.1633 27.2386 32.1435C27.0941 32.1236 26.947 32.1516 26.82 32.2233C25.8714 32.7533 24.8641 33.1706 23.8187 33.4668C23.679 33.5062 23.5559 33.5902 23.4683 33.706C23.3807 33.8217 23.3333 33.9629 23.3333 34.1081V38.6667H16.6667V34.11C16.6666 33.9648 16.6192 33.8237 16.5316 33.7079C16.444 33.5922 16.321 33.5082 16.1813 33.4688C15.1347 33.1723 14.1264 32.7545 13.1768 32.224C13.0497 32.1523 12.9027 32.1243 12.7582 32.1441C12.6137 32.164 12.4796 32.2307 12.3767 32.334L9.154 35.556L4.44075 30.8428L7.66667 27.6201C7.76998 27.5171 7.83667 27.3831 7.85654 27.2386C7.87641 27.0941 7.84835 26.947 7.77667 26.82C7.24669 25.8714 6.82936 24.8641 6.53317 23.8187C6.49365 23.6786 6.40939 23.5554 6.29325 23.4678C6.17712 23.3801 6.03549 23.3329 5.89 23.3333H1.33333V16.6667H5.89C6.03516 16.6666 6.17634 16.6192 6.29209 16.5316C6.40783 16.444 6.49181 16.321 6.53125 16.1813C6.82774 15.1347 7.24552 14.1264 7.77608 13.1768C7.84777 13.0497 7.87583 12.9027 7.85596 12.7582C7.83609 12.6137 7.76939 12.4796 7.66608 12.3767L4.444 9.15725L9.15725 4.44333L12.3799 7.66667C12.4829 7.76998 12.6169 7.83667 12.7614 7.85654C12.9059 7.87641 13.053 7.84835 13.18 7.77667C14.1286 7.24669 15.1359 6.82936 16.1813 6.53317C16.3214 6.49365 16.4446 6.40939 16.5322 6.29325C16.6199 6.17712 16.6671 6.03549 16.6667 5.89V1.33333H23.3333V5.89C23.3334 6.03516 23.3808 6.17634 23.4684 6.29209C23.556 6.40783 23.679 6.49181 23.8187 6.53125C24.8653 6.82774 25.8736 7.24552 26.8233 7.77608C26.9503 7.84777 27.0973 7.87583 27.2418 7.85596C27.3863 7.83609 27.5204 7.76939 27.6233 7.66608L30.846 4.44333L35.5592 9.15725L32.3333 12.3799C32.23 12.4829 32.1633 12.6169 32.1435 12.7614C32.1236 12.9059 32.1516 13.053 32.2233 13.18C32.7533 14.1286 33.1706 15.1359 33.4668 16.1813C33.5062 16.3211 33.5902 16.4441 33.706 16.5317C33.8217 16.6193 33.9629 16.6667 34.1081 16.6667H38.6667V23.3333Z" fill="#1F1F1F"/>
</svg>
