<svg width="40" height="40" viewBox="0 0 40 40" fill="none" xmlns="http://www.w3.org/2000/svg">
<path d="M39.6488 22.6C39.2954 21.9923 38.7164 21.5489 38.0379 21.3663C37.3594 21.1838 36.6363 21.2769 36.026 21.6253L23.9791 28.652C23.9744 27.7708 23.6215 26.9272 22.9976 26.3054C22.3736 25.6837 21.5292 25.3342 20.6487 25.3333H7.33562C7.28131 25.3334 7.22721 25.3399 7.17443 25.3527L5.30938 25.8193C5.26554 25.3237 5.03828 24.8624 4.67217 24.5258C4.30607 24.1893 3.82754 24.0017 3.33044 24H1.99826C1.46829 24 0.960024 24.2107 0.585277 24.5858C0.210531 24.9609 0 25.4696 0 26V38C0 38.5304 0.210531 39.0391 0.585277 39.4142C0.960024 39.7893 1.46829 40 1.99826 40H3.33044C3.82618 39.9985 4.30357 39.8122 4.66947 39.4774C5.03536 39.1426 5.2635 38.6834 5.30938 38.1893L7.16777 38.6473C7.21987 38.6601 7.27331 38.6666 7.32696 38.6667H16.479C17.0681 38.6666 17.6466 38.5102 18.1555 38.2133L38.6824 26.242C39.2884 25.883 39.7292 25.3001 39.91 24.6189C40.0908 23.9377 39.997 23.2127 39.6488 22.6ZM3.99652 38C3.99652 38.1768 3.92635 38.3464 3.80143 38.4714C3.67652 38.5964 3.50709 38.6667 3.33044 38.6667H1.99826C1.8216 38.6667 1.65218 38.5964 1.52727 38.4714C1.40235 38.3464 1.33217 38.1768 1.33217 38V26C1.33217 25.8232 1.40235 25.6536 1.52727 25.5286C1.65218 25.4036 1.8216 25.3333 1.99826 25.3333H3.33044C3.50709 25.3333 3.67652 25.4036 3.80143 25.5286C3.92635 25.6536 3.99652 25.8232 3.99652 26V38ZM38.0109 25.0907L17.4848 37.0613C17.1795 37.2394 16.8324 37.3333 16.479 37.3333H7.40822L5.3287 36.8207V27.188L7.41688 26.6667H20.6487C21.002 26.6658 21.3491 26.7589 21.6546 26.9365C21.9601 27.1141 22.213 27.3697 22.3874 27.6772C22.5617 27.9847 22.6513 28.3331 22.6469 28.6866C22.6426 29.0402 22.5444 29.3862 22.3626 29.6893C22.2792 29.8302 22.1797 29.9608 22.0661 30.0787C21.6899 30.4545 21.1803 30.6659 20.6487 30.6667H13.9878V32H20.6487C21.1946 32.0033 21.7328 31.8705 22.2146 31.6135C22.6964 31.3565 23.1066 30.9834 23.4083 30.528L36.6928 22.7787C36.8424 22.6912 37.0079 22.6343 37.1797 22.6113C37.3514 22.5884 37.526 22.5998 37.6934 22.6449C37.8607 22.6901 38.0174 22.7681 38.1543 22.8743C38.2913 22.9806 38.4058 23.1131 38.4912 23.264C38.6662 23.5707 38.714 23.934 38.6242 24.2756C38.5344 24.6172 38.3142 24.9099 38.0109 25.0907ZM0.666087 20H28.6418C28.8184 20 28.9878 19.9298 29.1128 19.8047C29.2377 19.6797 29.3078 19.5101 29.3078 19.3333V13.6513L31.2302 14.4213C31.7064 14.6124 32.2379 14.6124 32.7142 14.4213L34.6365 13.6513V15.3333C34.6365 15.5101 34.7067 15.6797 34.8316 15.8047C34.9565 15.9298 35.126 16 35.3026 16H39.2992C39.4758 16 39.6452 15.9298 39.7701 15.8047C39.8951 15.6797 39.9652 15.5101 39.9652 15.3333V0.666667C39.9652 0.489856 39.8951 0.320286 39.7701 0.195262C39.6452 0.0702379 39.4758 0 39.2992 0H35.3026C35.126 0 34.9565 0.0702379 34.8316 0.195262C34.7067 0.320286 34.6365 0.489856 34.6365 0.666667V1.33333H20.6487C20.4721 1.33337 20.3027 1.40363 20.1778 1.52867L17.7086 4H0.666087C0.48943 4 0.320008 4.07024 0.195092 4.19526C0.0701768 4.32029 0 4.48986 0 4.66667V19.3333C0 19.5101 0.0701768 19.6797 0.195092 19.8047C0.320008 19.9298 0.48943 20 0.666087 20ZM35.9687 1.33333H38.6331V14.6667H35.9687V1.33333ZM20.9245 2.66667H34.6365V12.2153L32.22 13.1827C32.0612 13.2467 31.8838 13.2467 31.7251 13.1827L28.8895 12.0493C28.8108 12.0174 28.7267 12.0007 28.6418 12H22.647C22.2937 12 21.9548 11.8595 21.705 11.6095C21.4551 11.3594 21.3148 11.0203 21.3148 10.6667C21.3148 10.313 21.4551 9.97391 21.705 9.72386C21.9548 9.47381 22.2937 9.33333 22.647 9.33333H31.3061V8H29.3078V4.66667C29.3078 4.48986 29.2377 4.32029 29.1128 4.19526C28.9878 4.07024 28.8184 4 28.6418 4H19.5923L20.9245 2.66667ZM1.33217 5.33333H27.9757V8H22.647C21.9403 8 21.2627 8.28095 20.763 8.78105C20.2633 9.28115 19.9826 9.95942 19.9826 10.6667C19.9826 11.3739 20.2633 12.0522 20.763 12.5523C21.2627 13.0524 21.9403 13.3333 22.647 13.3333H27.9757V18.6667H1.33217V5.33333Z" fill="#1F1F1F"/>
<path d="M14.6539 6.66667C13.6 6.66667 12.5698 6.97946 11.6935 7.5655C10.8172 8.15153 10.1342 8.98448 9.73085 9.95902C9.32753 10.9336 9.222 12.0059 9.42761 13.0405C9.63322 14.075 10.1407 15.0254 10.886 15.7712C11.6312 16.5171 12.5807 17.0251 13.6143 17.2309C14.648 17.4366 15.7194 17.331 16.6931 16.9274C17.6668 16.5237 18.499 15.8401 19.0846 14.963C19.6701 14.086 19.9826 13.0548 19.9826 12C19.981 10.586 19.4191 9.23037 18.4201 8.23052C17.4211 7.23067 16.0667 6.66825 14.6539 6.66667ZM14.6539 16C13.8635 16 13.0908 15.7654 12.4336 15.3259C11.7763 14.8864 11.2641 14.2616 10.9616 13.5307C10.6591 12.7998 10.58 11.9956 10.7342 11.2196C10.8884 10.4437 11.269 9.73098 11.828 9.17157C12.3869 8.61216 13.099 8.2312 13.8742 8.07686C14.6495 7.92252 15.4531 8.00173 16.1833 8.30448C16.9136 8.60723 17.5378 9.11992 17.9769 9.77772C18.4161 10.4355 18.6504 11.2089 18.6504 12C18.6494 13.0605 18.228 14.0773 17.4787 14.8273C16.7295 15.5772 15.7135 15.9989 14.6539 16ZM2.66435 7.33333V10H3.99652V8H5.99479V6.66667H3.33044C3.15378 6.66667 2.98436 6.73691 2.85944 6.86193C2.73453 6.98695 2.66435 7.15652 2.66435 7.33333ZM3.99652 14H2.66435V16.6667C2.66435 16.8435 2.73453 17.013 2.85944 17.1381C2.98436 17.2631 3.15378 17.3333 3.33044 17.3333H5.99479V16H3.99652V14ZM25.3113 16H23.3131V17.3333H25.9774C26.1541 17.3333 26.3235 17.2631 26.4484 17.1381C26.5733 17.013 26.6435 16.8435 26.6435 16.6667V14H25.3113V16Z" fill="#1F1F1F"/>
</svg>
