<svg width="42" height="40" viewBox="0 0 42 40" fill="none" xmlns="http://www.w3.org/2000/svg">
<path d="M31.5 0H9.1C8.54356 0.00158273 8.01038 0.212805 7.61691 0.587535C7.22344 0.962265 7.00166 1.47005 7 2V16H4.2C4.11124 15.9987 4.02313 16.0146 3.941 16.0467L0.441 17.38C0.310755 17.4294 0.199085 17.5149 0.120457 17.6255C0.0418286 17.736 -0.000135389 17.8665 3.28157e-07 18V27.3333C0.000596811 27.4431 0.0296629 27.5511 0.0846161 27.6476C0.139569 27.7442 0.218708 27.8263 0.315 27.8867L2.422 29.22C2.53528 29.2941 2.66956 29.3337 2.807 29.3333H7V38C7.00166 38.5299 7.22344 39.0377 7.61691 39.4125C8.01038 39.7872 8.54356 39.9984 9.1 40H31.5C32.0564 39.9984 32.5896 39.7872 32.9831 39.4125C33.3766 39.0377 33.5983 38.5299 33.6 38V2C33.5983 1.47005 33.3766 0.962265 32.9831 0.587535C32.5896 0.212805 32.0564 0.00158273 31.5 0ZM6.93 21.3333H7V28H3.017L1.4 26.9733V18.4533L4.333 17.3333H12.6C12.9713 17.3333 13.3274 17.4738 13.5899 17.7239C13.8525 17.9739 14 18.313 14 18.6667C14 19.0203 13.8525 19.3594 13.5899 19.6095C13.3274 19.8595 12.9713 20 12.6 20H6.3C6.11435 20 5.9363 20.0702 5.80503 20.1953C5.67375 20.3203 5.6 20.4899 5.6 20.6667C5.59834 21.1966 5.37656 21.7044 4.98309 22.0791C4.58962 22.4539 4.05644 22.6651 3.5 22.6667V24C4.30654 23.999 5.08808 23.7333 5.71287 23.2475C6.33767 22.7618 6.76753 22.0857 6.93 21.3333ZM32.2 38C32.2 38.1768 32.1263 38.3464 31.995 38.4714C31.8637 38.5964 31.6857 38.6667 31.5 38.6667H9.1C8.91435 38.6667 8.7363 38.5964 8.60503 38.4714C8.47375 38.3464 8.4 38.1768 8.4 38V21.3333H12.6C13.3426 21.3333 14.0548 21.0524 14.5799 20.5523C15.105 20.0522 15.4 19.3739 15.4 18.6667C15.4 17.9594 15.105 17.2811 14.5799 16.781C14.0548 16.281 13.3426 16 12.6 16H8.4V2C8.4 1.82319 8.47375 1.65362 8.60503 1.5286C8.7363 1.40357 8.91435 1.33333 9.1 1.33333H31.5C31.6857 1.33333 31.8637 1.40357 31.995 1.5286C32.1263 1.65362 32.2 1.82319 32.2 2V38Z" fill="#1F1F1F"/>
<path d="M20.3 12C20.4856 12 20.6637 11.9297 20.7949 11.8047L24.7548 8.03333L23.765 7.09067L20.3 10.3907L18.8146 8.976L17.8248 9.91867L19.8051 11.8047C19.9363 11.9297 20.1144 12 20.3 12Z" fill="#1F1F1F"/>
<path d="M26.887 5.39333L20.587 2.72667C20.497 2.68714 20.3991 2.66667 20.3 2.66667C20.2009 2.66667 20.103 2.68714 20.013 2.72667L13.713 5.39333C13.5895 5.44501 13.4846 5.52999 13.4112 5.6378C13.3378 5.74561 13.2991 5.87152 13.3 6V10.2733C13.2997 11.12 13.4879 11.9571 13.8523 12.7293C14.2167 13.5016 14.749 14.1914 15.414 14.7533L19.838 18.5C19.9657 18.6069 20.13 18.6658 20.3 18.6658C20.47 18.6658 20.6343 18.6069 20.762 18.5L25.186 14.7533C25.851 14.1914 26.3833 13.5016 26.7477 12.7293C27.1121 11.9571 27.3003 11.12 27.3 10.2733V6C27.3009 5.87152 27.2622 5.74561 27.1888 5.6378C27.1154 5.52999 27.0105 5.44501 26.887 5.39333ZM25.9 10.2733C25.8991 10.9321 25.7522 11.5832 25.4687 12.1841C25.1852 12.7849 24.7716 13.322 24.255 13.76L20.3 17.1067L16.345 13.76C15.8284 13.322 15.4148 12.7849 15.1313 12.1841C14.8478 11.5832 14.7009 10.9321 14.7 10.2733V6.43333L20.3 4.06L25.9 6.43333V10.2733ZM41.3 13.3333H39.2V11.3333C39.2 10.8029 38.9787 10.2942 38.5849 9.91912C38.1911 9.54405 37.657 9.33333 37.1 9.33333C36.543 9.33333 36.0089 9.54405 35.6151 9.91912C35.2212 10.2942 35 10.8029 35 11.3333V34C35.0001 34.054 35.0071 34.1077 35.021 34.16L36.421 39.4933C36.4589 39.6375 36.5464 39.7654 36.6694 39.8569C36.7924 39.9483 36.944 39.9979 37.1 39.9979C37.256 39.9979 37.4076 39.9483 37.5306 39.8569C37.6536 39.7654 37.7411 39.6375 37.779 39.4933L39.179 34.16C39.1929 34.1077 39.1999 34.054 39.2 34V14.6667H40.6V20.6667H42V14C42 13.8232 41.9263 13.6536 41.795 13.5286C41.6637 13.4036 41.4856 13.3333 41.3 13.3333ZM37.1 36.5867L36.596 34.6667H37.604L37.1 36.5867ZM37.8 33.3333H36.4V14.6667H37.8V33.3333ZM37.8 13.3333H36.4V11.3333C36.4 11.1565 36.4737 10.987 36.605 10.8619C36.7363 10.7369 36.9143 10.6667 37.1 10.6667C37.2857 10.6667 37.4637 10.7369 37.595 10.8619C37.7262 10.987 37.8 11.1565 37.8 11.3333V13.3333ZM11.2 24H14V25.3333H11.2V24ZM15.4 24H29.4V25.3333H15.4V24ZM11.2 28H14V29.3333H11.2V28ZM15.4 28H29.4V29.3333H15.4V28ZM11.2 32H14V33.3333H11.2V32ZM15.4 32H29.4V33.3333H15.4V32ZM11.2 36H14V37.3333H11.2V36ZM15.4 36H29.4V37.3333H15.4V36Z" fill="#1F1F1F"/>
</svg>
