<svg width="40" height="26" viewBox="0 0 40 26" fill="none" xmlns="http://www.w3.org/2000/svg">
<path d="M4.66667 2.73684H6V23.2632H4.66667V2.73684ZM7.33333 2.73684H8.66667V23.2632H7.33333V2.73684ZM10 2.73684H11.3333V23.2632H10V2.73684ZM12.6667 2.73684H14V23.2632H12.6667V2.73684ZM15.3333 2.73684H16.6667V23.2632H15.3333V2.73684ZM18 2.73684H19.3333V23.2632H18V2.73684ZM20.6667 2.73684H22V23.2632H20.6667V2.73684ZM23.3333 2.73684H24.6667V23.2632H23.3333V2.73684ZM26 2.73684H27.3333V23.2632H26V2.73684ZM28.6667 2.73684H30V23.2632H28.6667V2.73684ZM31.3333 2.73684H32.6667V23.2632H31.3333V2.73684ZM34 2.73684H35.3333V23.2632H34V2.73684ZM0 0.684211V3.42105H1.33333V1.36842H3.33333V0H0.666667C0.489856 0 0.320286 0.0720864 0.195262 0.200401C0.0702379 0.328715 0 0.502747 0 0.684211ZM39.3333 0H36.6667V1.36842H38.6667V3.42105H40V0.684211C40 0.502747 39.9298 0.328715 39.8047 0.200401C39.6797 0.0720864 39.5101 0 39.3333 0ZM1.33333 22.5789H0V25.3158C0 25.4973 0.0702379 25.6713 0.195262 25.7996C0.320286 25.9279 0.489856 26 0.666667 26H3.33333V24.6316H1.33333V22.5789ZM38.6667 24.6316H36.6667V26H39.3333C39.5101 26 39.6797 25.9279 39.8047 25.7996C39.9298 25.6713 40 25.4973 40 25.3158V22.5789H38.6667V24.6316Z" fill="#1F1F1F"/>
</svg>
