<svg width="40" height="40" viewBox="0 0 40 40" fill="none" xmlns="http://www.w3.org/2000/svg">
<path d="M20 0C16.0444 0 12.1776 1.17298 8.8886 3.37061C5.59962 5.56823 3.03617 8.69181 1.52242 12.3463C0.00866588 16.0009 -0.387401 20.0222 0.384303 23.9018C1.15601 27.7814 3.06082 31.3451 5.85787 34.1421C8.65492 36.9392 12.2186 38.844 16.0982 39.6157C19.9778 40.3874 23.9992 39.9913 27.6537 38.4776C31.3082 36.9638 34.4318 34.4004 36.6294 31.1114C38.827 27.8224 40 23.9556 40 20C39.994 14.6975 37.8849 9.61392 34.1355 5.86449C30.3861 2.11506 25.3025 0.00599929 20 0ZM20.6667 2.68333V1.35C23.4901 1.44703 26.2539 2.18789 28.7473 3.516L28.0807 4.672C25.7905 3.45957 23.2562 2.77978 20.6667 2.68333ZM19.3333 2.68333C16.7441 2.77988 14.21 3.45967 11.92 4.672L11.2533 3.516C13.7465 2.18798 16.5102 1.44714 19.3333 1.35V2.68333ZM20 4C22.3482 3.99968 24.6676 4.51712 26.793 5.51547C28.9185 6.51382 30.7976 7.96853 32.2967 9.776L22.7127 14.6553C21.8733 14.2246 20.9434 14 20 14C19.0566 14 18.1267 14.2246 17.2873 14.6553L7.70334 9.776C9.2024 7.96853 11.0815 6.51382 13.207 5.51547C15.3324 4.51712 17.6518 3.99968 20 4ZM34.494 13.2333L25.9547 19.2967C25.7811 17.8336 25.074 16.4861 23.9687 15.512L33.1173 10.8547C33.6436 11.6066 34.1041 12.4024 34.494 13.2333ZM20 36C19.5333 36 19.0667 35.9753 18.608 35.9333L17.526 25.46C18.3022 25.8158 19.1461 26 20 26C20.8539 26 21.6978 25.8158 22.474 25.46L21.392 35.9333C20.9333 35.9753 20.4667 36 20 36ZM20 24.6667C19.077 24.6667 18.1748 24.393 17.4073 23.8802C16.6399 23.3674 16.0418 22.6386 15.6886 21.7859C15.3354 20.9331 15.2429 19.9948 15.423 19.0896C15.6031 18.1843 16.0475 17.3528 16.7002 16.7002C17.3528 16.0475 18.1843 15.6031 19.0896 15.423C19.9948 15.2429 20.9331 15.3354 21.7859 15.6886C22.6386 16.0418 23.3674 16.6399 23.8802 17.4073C24.393 18.1748 24.6667 19.077 24.6667 20C24.6653 21.2372 24.1731 22.4234 23.2983 23.2983C22.4234 24.1731 21.2372 24.6653 20 24.6667ZM6.88267 10.8547L16.0313 15.512C14.926 16.4861 14.2189 17.8336 14.0453 19.2967L5.50601 13.2333C5.89586 12.4024 6.35645 11.6066 6.88267 10.8547ZM2.68334 19.3333H1.35001C1.44704 16.5099 2.1879 13.7461 3.51601 11.2527L4.67201 11.9193C3.45958 14.2095 2.77979 16.7438 2.68334 19.3333ZM2.68334 20.6667C2.77989 23.2559 3.45968 25.79 4.67201 28.08L3.51601 28.7467C2.18799 26.2535 1.44714 23.4898 1.35001 20.6667H2.68334ZM4.00001 20C3.99836 18.1212 4.32901 16.2569 4.97667 14.4933L14.084 20.96C14.3104 22.3526 15.0207 23.6208 16.09 24.5413L17.2487 35.7587C13.5409 35.1068 10.1811 33.1702 7.75855 30.2887C5.33597 27.4071 4.00532 23.7646 4.00001 20ZM19.3333 37.3167V38.65C16.51 38.553 13.7461 37.8121 11.2527 36.484L11.9193 35.328C14.2095 36.5404 16.7438 37.2202 19.3333 37.3167ZM20.6667 37.3167C23.256 37.2201 25.79 36.5403 28.08 35.328L28.7467 36.484C26.2535 37.812 23.4898 38.5529 20.6667 38.65V37.3167ZM22.7513 35.7587L23.91 24.5413C24.9793 23.6208 25.6896 22.3526 25.916 20.96L35.0233 14.4933C35.829 16.692 36.1422 19.0407 35.9409 21.3737C35.7397 23.7067 35.0287 25.967 33.8584 27.9952C32.688 30.0234 31.0867 31.77 29.1675 33.1116C27.2484 34.4533 25.0581 35.3574 22.7513 35.76V35.7587ZM37.3167 20.6667H38.65C38.553 23.49 37.8121 26.2539 36.484 28.7473L35.328 28.0807C36.5404 25.7905 37.2202 23.2562 37.3167 20.6667ZM37.3167 19.3333C37.2201 16.7441 36.5403 14.21 35.328 11.92L36.484 11.2533C37.812 13.7465 38.5529 16.5102 38.65 19.3333H37.3167ZM35.814 10.1L34.6587 10.7667C33.2749 8.57827 31.4217 6.72507 29.2333 5.34133L29.9 4.186C32.2904 5.68826 34.3117 7.70961 35.814 10.1ZM10.1 4.186L10.7667 5.34133C8.57828 6.72507 6.72508 8.57827 5.34134 10.7667L4.18601 10.1C5.68827 7.70961 7.70962 5.68826 10.1 4.186ZM4.18601 29.9L5.34134 29.2333C6.72508 31.4217 8.57828 33.2749 10.7667 34.6587L10.1 35.814C7.70962 34.3117 5.68827 32.2904 4.18601 29.9ZM29.9 35.814L29.2333 34.6587C31.4217 33.2749 33.2749 31.4217 34.6587 29.2333L35.814 29.9C34.3117 32.2904 32.2904 34.3117 29.9 35.814Z" fill="#1F1F1F"/>
<path d="M20 18C19.6044 18 19.2178 18.1173 18.8889 18.3371C18.56 18.5568 18.3036 18.8692 18.1522 19.2346C18.0009 19.6001 17.9613 20.0022 18.0384 20.3902C18.1156 20.7781 18.3061 21.1345 18.5858 21.4142C18.8655 21.6939 19.2219 21.8844 19.6098 21.9616C19.9978 22.0387 20.3999 21.9991 20.7654 21.8478C21.1308 21.6964 21.4432 21.44 21.6629 21.1111C21.8827 20.7822 22 20.3956 22 20C22 19.4696 21.7893 18.9609 21.4142 18.5858C21.0391 18.2107 20.5304 18 20 18ZM20 20.6667C19.8682 20.6667 19.7393 20.6276 19.6296 20.5543C19.52 20.4811 19.4345 20.3769 19.3841 20.2551C19.3336 20.1333 19.3204 19.9993 19.3461 19.8699C19.3719 19.7406 19.4354 19.6218 19.5286 19.5286C19.6218 19.4354 19.7406 19.3719 19.8699 19.3461C19.9993 19.3204 20.1333 19.3336 20.2551 19.3841C20.3769 19.4345 20.4811 19.52 20.5543 19.6296C20.6276 19.7393 20.6667 19.8681 20.6667 20C20.6667 20.1768 20.5964 20.3464 20.4714 20.4714C20.3464 20.5964 20.1768 20.6667 20 20.6667Z" fill="#1F1F1F"/>
</svg>
